<svg xmlns="http://www.w3.org/2000/svg" xmlns:xlink="http://www.w3.org/1999/xlink" width="29" height="29"><defs><path id="a" d="M475.7 3722.96c-2.52 0-4.92 2.19-4.92 3.46v3.74c0 1.4.64 4.05 2.13 5.24a1.77 1.77 0 0 1-.27 2.94l-5.72 3.1a2.86 2.86 0 0 0-.57.33v1.58h18.62v-1.6a2.54 2.54 0 0 0-.58-.31l-5.58-3.1a1.77 1.77 0 0 1-.24-2.94c1.53-1.2 1.96-3.85 1.96-5.24v-3.74c0-1.3-2.27-3.46-4.83-3.46 0 0 2.51 0 0 0zm0-1.78c3.3 0 6.6 2.76 6.6 5.24v3.74c0 1.8-.56 5-2.64 6.63l5.58 3.1s1.5.6 1.5 1.49v2.24c0 .83-.67 1.5-1.5 1.5h-19.17a1.5 1.5 0 0 1-1.5-1.5v-2.24c0-.83 1.5-1.5 1.5-1.5l5.73-3.1c-2.1-1.68-2.79-4.99-2.79-6.62v-3.74c0-2.48 3.38-5.24 6.69-5.24zm17.25 15.79v2.22c0 .82-.68 1.5-1.5 1.5h-2.94c-.21-.79-.38-1.37-.92-1.78h3.58v-1.58a2.57 2.57 0 0 0-.57-.3l-5.67-3.1a1.77 1.77 0 0 1-.24-2.94c1.53-1.2 2.04-3.85 2.04-5.24v-3.74c0-1.3-2.35-3.5-4.91-3.5-1.28 0-2.46.44-3.4 1.17-.7-.22-1.5-.23-2.23-.27a7.82 7.82 0 0 1 5.63-2.66c3.3 0 6.68 2.78 6.68 5.26v3.74c0 1.8-.64 5-2.72 6.63l5.67 3.1s1.5.6 1.5 1.49z"/></defs><use fill="#fff" xlink:href="#a" transform="translate(-464 -3716)"/></svg>