<svg xmlns="http://www.w3.org/2000/svg" xmlns:xlink="http://www.w3.org/1999/xlink" width="24" height="24"><defs><path id="a" d="M690.77 3742.86l-.73.02-.01-.76c0-3.75.75-4.54 2.35-5.34.39-.19.78-.36 1.21-.7l.91 1.17c-.54.42-1.05.67-1.45.87-.96.48-1.44.75-1.52 3.27 2.61-.1 2.91-.75 3.38-1.72.18-.38.39-.81.72-1.27l1.11 1.01c-.27.45-.36.68-.53 1.02-.74 1.54-1.48 2.43-5.44 2.43zm15.7-13.41a3 3 0 1 1 0-6 3 3 0 0 1 0 6zm0-4.5a1.5 1.5 0 1 0 0 3 1.5 1.5 0 0 0 0-3zm-6.5 18.04a.75.75 0 0 1-.73-.57l-.9-3.85-1.7-1.87c-.8-.9-1.31-1.46-1.61-1.83l-4.46-1.02a.75.75 0 0 1-.4-1.22l2.75-2.97a.75.75 0 0 1 .55-.25h4.16c.26-.47.56-1.08.88-1.71.82-1.65 1.76-3.63 2.7-4.73a9.05 9.05 0 0 1 3.8-2.73c4.02-1.5 8.2-1.2 8.2-1.2.38.03.67.33.7.7 0 .2.27 4.85-.98 8.22a8.06 8.06 0 0 1-2.54 3.7c-1.05.92-3.57 2.1-5.26 3.05-.62.34-1.28.7-1.65.93v3.85c0 .22-.1.43-.26.57l-2.77 2.75a.75.75 0 0 1-.48.18zm-4-9.28l3.6 4c.08.1.14.21.17.33l.67 2.84 1.58-1.73v-3.9c0-.23.1-.44.27-.58.3-.25 1-.62 2.14-1.27 1.54-.86 4.07-2.04 5-2.86a6.6 6.6 0 0 0 2.13-3.1c.88-2.36.93-5.56.9-6.93-1.3-.01-4.14.1-6.9 1.13a7.52 7.52 0 0 0-3.19 2.3c-.82.96-1.75 2.94-2.5 4.43a32.1 32.1 0 0 1-1.15 2.17.75.75 0 0 1-.63.36h-4.25l-1.68 1.77 3.42.79c.16.03.3.12.41.25z"/></defs><use fill="#fff" xlink:href="#a" transform="translate(-690 -3719)"/></svg>