<svg xmlns="http://www.w3.org/2000/svg" xmlns:xlink="http://www.w3.org/1999/xlink" width="31" height="29"><defs><path id="a" d="M917.26 3723.72v-3.19h-3.61c-.04.86.04 2.37.87 3.39.61.75 1.56 1.19 2.84 1.3-.07-.48-.1-.99-.1-1.5zm0-6.02c0-.53.42-.95.93-.95h16.87c.52 0 .94.42.94.95v.94h4.59c.44 0 .83.32.92.75.03.14.65 3.46-1.17 5.71-1.07 1.33-2.72 2.02-4.9 2.05-1.2 3.59-4.24 6.24-7.88 6.62v6.59h2.9c.51 0 .93.42.93.95 0 .52-.42.94-.93.94h-7.59a.94.94 0 0 1-.93-.94c0-.53.42-.95.93-.95h2.81v-6.59c-3.64-.4-6.67-3.04-7.87-6.62-2.1-.06-3.7-.75-4.75-2.05-1.83-2.25-1.2-5.57-1.17-5.7a.94.94 0 0 1 .92-.76h4.45zm18.74 6.02c0 .52-.04 1.03-.1 1.52 1.34-.1 2.34-.55 2.98-1.32.83-1.02.91-2.53.87-3.39H936zm-16.87-5.08v5.08c0 4.53 3.37 8.21 7.5 8.21s7.5-3.68 7.5-8.2v-5.09zm14.13 26.48h-13.19a.94.94 0 0 1-.94-.95c0-.52.42-.94.94-.94h13.19a.94.94 0 1 1 0 1.9z"/></defs><use fill="#fff" xlink:href="#a" transform="translate(-911 -3716)"/></svg>